<?xml version="1.0" encoding="UTF-8"?>
<svg id="Livello_2" data-name="Livello 2" xmlns="http://www.w3.org/2000/svg" viewBox="0 0 329.4 102.65">
  <defs>
    <style>
      .cls-1 {
        fill: #efefef;
      }

      .cls-2 {
        fill: #222;
      }
    </style>
  </defs>
  <g id="Livello_1-2" data-name="Livello 1">
    <polygon class="cls-1" points="127.16 102.65 127.16 102.57 179.15 0 202.24 0 150.27 102.65 127.16 102.65"/>
    <g>
      <path class="cls-2" d="M10.17,20.78l7.4,31.08v-31.08h9.6v60.85h-9.2l-8.38-33.37v33.37H0V20.78h10.17Z"/>
      <path class="cls-2" d="M58.43,67.72c0,8.92-4.72,14.8-12.86,14.8h-2.44c-8.54,0-13.1-5.32-13.1-14.8v-32.14c0-9.41,3.66-15.54,13.02-15.54h2.44c9.52,0,12.94,6.13,12.94,15.46v32.22ZM47.12,34.68c0-2.7-.9-4.01-2.85-4.01-2.12,0-2.93,1.31-2.93,4.01v33.37c0,1.88.73,3.6,3.01,3.6s2.77-1.72,2.77-3.6v-33.37Z"/>
      <path class="cls-2" d="M71.45,20.78l7.4,31.08v-31.08h9.6v60.85h-9.2l-8.38-33.37v33.37h-9.6V20.78h10.17Z"/>
      <path class="cls-2" d="M105.7,20.04c8.46,0,11.64,3.93,11.64,11.94v8.18h-10.42v-7.61c0-1.96-.41-3.19-2.36-3.19s-2.36,1.23-2.36,3.27v1.39c0,2.86.65,4.83,3.34,7.85l6.18,6.95c5.45,6.13,6.59,10.47,6.59,15.62v2.86c0,9.08-4.23,15.05-13.18,15.05h-2.12c-8.22,0-12.37-4.42-12.37-12.6v-10.96h10.66v9.73c0,2.45.81,3.68,2.77,3.68s2.69-1.47,2.69-4.42v-1.14c0-4.25-.33-5.97-3.5-9.49l-6.27-6.95c-4.48-4.91-5.78-9.73-5.78-15.46v-2.62c0-7.77,4.72-12.1,12.29-12.1h2.2Z"/>
      <path class="cls-2" d="M148.59,67.72c0,8.92-4.72,14.8-12.86,14.8h-2.44c-8.54,0-13.1-5.32-13.1-14.8v-32.14c0-9.41,3.66-15.54,13.02-15.54h2.44c9.52,0,12.94,6.13,12.94,15.46v32.22ZM137.28,34.68c0-2.7-.9-4.01-2.85-4.01-2.12,0-2.93,1.31-2.93,4.01v33.37c0,1.88.73,3.6,3.01,3.6s2.77-1.72,2.77-3.6v-33.37Z"/>
      <path class="cls-2" d="M161.61,20.78l7.41,31.08v-31.08h9.6v60.85h-9.2l-8.38-33.37v33.37h-9.6V20.78h10.17Z"/>
      <path class="cls-2" d="M209.86,67.72c0,8.92-4.72,14.8-12.86,14.8h-2.44c-8.54,0-13.1-5.32-13.1-14.8v-32.14c0-9.41,3.66-15.54,13.02-15.54h2.44c9.52,0,12.94,6.13,12.94,15.46v32.22ZM198.55,34.68c0-2.7-.9-4.01-2.85-4.01-2.12,0-2.93,1.31-2.93,4.01v33.37c0,1.88.73,3.6,3.01,3.6s2.77-1.72,2.77-3.6v-33.37Z"/>
      <path class="cls-2" d="M229.23,54.8h10.74v13.74c0,7.28-2.93,14.07-12.53,14.07h-2.2c-10.42,0-12.78-6.79-12.78-14.39v-34.35c0-7.36,3.17-13.82,12.78-13.82h2.2c10.33,0,12.53,6.46,12.53,13.41v10.22h-10.74v-9.81c0-2.29-.73-3.52-2.77-3.52s-2.69,1.14-2.69,3.52v34.35c0,2.37.81,3.68,2.77,3.68s2.69-1.47,2.69-3.68v-13.41Z"/>
      <path class="cls-2" d="M270.81,67.72c0,8.92-4.72,14.8-12.86,14.8h-2.44c-8.54,0-13.1-5.32-13.1-14.8v-32.14c0-9.41,3.66-15.54,13.02-15.54h2.44c9.52,0,12.94,6.13,12.94,15.46v32.22ZM259.5,34.68c0-2.7-.9-4.01-2.85-4.01-2.12,0-2.93,1.31-2.93,4.01v33.37c0,1.88.73,3.6,3.01,3.6s2.77-1.72,2.77-3.6v-33.37Z"/>
      <path class="cls-2" d="M287.82,20.04c8.46,0,11.64,3.93,11.64,11.94v8.18h-10.42v-7.61c0-1.96-.41-3.19-2.36-3.19s-2.36,1.23-2.36,3.27v1.39c0,2.86.65,4.83,3.34,7.85l6.18,6.95c5.45,6.13,6.59,10.47,6.59,15.62v2.86c0,9.08-4.23,15.05-13.18,15.05h-2.12c-8.22,0-12.37-4.42-12.37-12.6v-10.96h10.66v9.73c0,2.45.81,3.68,2.77,3.68s2.69-1.47,2.69-4.42v-1.14c0-4.25-.33-5.97-3.5-9.49l-6.27-6.95c-4.48-4.91-5.78-9.73-5.78-15.46v-2.62c0-7.77,4.72-12.1,12.29-12.1h2.2Z"/>
      <path class="cls-2" d="M317.76,71.4h-6.51l-.98,10.22h-9.6l7.65-60.85h12.86l8.22,60.85h-10.5l-1.14-10.22ZM312.31,60.94h4.39l-2.28-20.86-2.12,20.86Z"/>
    </g>
  </g>
</svg>