<?xml version="1.0" encoding="UTF-8"?>
<svg id="Livello_1" data-name="Livello 1" xmlns="http://www.w3.org/2000/svg" viewBox="0 0 1210.22 1220.09">
  <path d="M1078.45,880.16v-420.48c0-4.63-3.75-8.37-8.37-8.37h-152.3l-169.08-255.68c-.53-.8-1.19-1.48-1.91-2.03-1.53-1.25-3.51-2-5.67-2H140.43c-2.32,0-4.55.88-6.19,2.45-1.65,1.58-2.56,3.7-2.56,5.93l.38,337.81c0,4.62,3.92,8.37,8.75,8.37h155.48v.55l-145.27,470.92c-1.13,3.61.3,7.53,3.49,9.56,1.14.72,2.41,1.13,3.7,1.25.35.05.71.08,1.07.08.41,0,.83-.03,1.24-.09l910.89-138.74c4.58-.69,7.73-4.95,7.05-9.52ZM311.52,888.53h656.15l-783.35,119.31,127.19-119.31ZM1061.7,468.05v403.73H313.04v-322.59l.85-2.76h426.93c1.74,0,3.36-.53,4.7-1.44,2.6-1.45,4.34-4.14,4.34-7.23v-69.72h311.84ZM749.86,451.3v-223.55l147.8,223.55h-147.8ZM149.19,208.33h583.17v321.06H149.55l-.36-321.06ZM296.29,603.53v276.34l-120.04,113.12,120.04-389.46Z" style="fill: #262b60;"/>
  <g>
    <path d="M219.25,389.75c0,16.56,12.88,22.99,27.51,22.99,9.57,0,24.2-2.77,24.2-15.48,0-13.43-18.63-15.69-36.92-20.55-18.45-4.88-37.09-12.01-37.09-35.36,0-25.42,24.03-37.6,46.5-37.6,25.94,0,49.8,11.32,49.8,40.05h-26.48c-.87-14.99-11.49-18.82-24.55-18.82-8.7,0-18.8,3.66-18.8,14.11,0,9.58,5.92,10.8,37.09,18.82,9.05,2.26,36.92,8,36.92,36.21,0,22.82-17.93,39.88-51.72,39.88-27.51,0-53.29-13.58-52.94-44.24h26.48Z" style="fill: #262b60;"/>
    <path d="M331.45,392.03c.7,15.67,8.36,22.8,22.12,22.8,9.92,0,17.93-6.09,19.5-11.67h21.77c-6.97,21.25-21.77,30.3-42.15,30.3-28.38,0-45.97-19.5-45.97-47.35s18.63-47.54,45.97-47.54c30.65,0,45.46,25.76,43.71,53.46h-64.96ZM371.67,376.34c-2.26-12.52-7.66-19.14-19.68-19.14-15.67,0-20.2,12.18-20.55,19.14h40.22Z" style="fill: #262b60;"/>
    <path d="M411.09,341h23.52v12.54h.52c6.27-10.11,17.07-14.97,27.51-14.97,26.3,0,32.92,14.79,32.92,37.08v55.39h-24.73v-50.84c0-14.8-4.36-22.12-15.85-22.12-13.41,0-19.15,7.49-19.15,25.76v47.2h-24.73v-90.03Z" style="fill: #262b60;"/>
    <path d="M508.83,412.4l46.84-52.77h-43.36v-18.63h75.92v18.63l-46.84,52.77h50.15v18.63h-82.72v-18.63Z" style="fill: #262b60;"/>
    <path d="M603.8,368.69c1.39-23.16,22.11-30.12,42.31-30.12,17.94,0,39.54,4,39.54,25.59v46.84c0,8.18.87,16.37,3.13,20.03h-25.07c-.88-2.79-1.57-5.75-1.74-8.71-7.84,8.18-19.33,11.15-30.3,11.15-17.06,0-30.65-8.52-30.65-26.99,0-20.37,15.32-25.25,30.65-27.34,15.15-2.26,29.26-1.74,29.26-11.84,0-10.62-7.31-12.18-16.02-12.18-9.4,0-15.5,3.83-16.37,13.58h-24.72ZM660.91,386.98c-4.18,3.66-12.88,3.83-20.55,5.22-7.67,1.57-14.62,4.17-14.62,13.24s7.14,11.49,15.14,11.49c19.33,0,20.03-15.33,20.03-20.73v-9.22Z" style="fill: #262b60;"/>
  </g>
  <g>
    <path d="M425,629.68h27.17l51.9,83.41h.35v-83.41h25.6v124.33h-27.34l-51.72-83.24h-.35v83.24h-25.6v-124.33Z" style="fill: #262b60;"/>
    <path d="M595.22,661.55c28.38,0,46.67,18.8,46.67,47.54s-18.29,47.35-46.67,47.35-46.5-18.8-46.5-47.35,18.28-47.54,46.5-47.54ZM595.22,737.82c16.89,0,21.94-14.45,21.94-28.72s-5.05-28.91-21.94-28.91-21.77,14.45-21.77,28.91,5.05,28.72,21.77,28.72Z" style="fill: #262b60;"/>
    <path d="M659.01,727.2h27.34v26.82h-27.34v-26.82Z" style="fill: #e05213;"/>
    <path d="M707.1,663.99h23.34v12.18h.35c6.44-9.22,15.85-14.62,27.51-14.62s21.42,4.17,26.3,14.97c5.22-7.84,14.62-14.97,27.17-14.97,19.15,0,32.91,8.88,32.91,32.21v60.25h-24.72v-51.03c0-12.01-1.05-21.93-15.15-21.93s-16.54,11.49-16.54,22.8v50.16h-24.73v-50.5c0-10.45.7-22.46-14.97-22.46-4.87,0-16.72,3.13-16.72,20.73v52.24h-24.73v-90.03Z" style="fill: #262b60;"/>
    <path d="M884.64,715.02c.7,15.67,8.36,22.8,22.12,22.8,9.92,0,17.93-6.09,19.5-11.67h21.77c-6.97,21.25-21.77,30.3-42.15,30.3-28.38,0-45.97-19.5-45.97-47.35s18.63-47.54,45.97-47.54c30.65,0,45.46,25.76,43.71,53.46h-64.96ZM924.86,699.33c-2.26-12.52-7.66-19.14-19.68-19.14-15.67,0-20.2,12.18-20.55,19.14h40.22Z" style="fill: #262b60;"/>
  </g>
</svg>